<svg width="0" height="0" class="hidden">
  <symbol  xmlns="http://www.w3.org/2000/svg" viewBox="0 0 98 98" id="quote">
    <g id="gridicons:quote">
      <path id="Vector" d="M45.7009 64.3411C45.7009 60.7478 44.7617 57.7343 42.8834 55.2883C41.5522 53.606 39.7474 52.4994 37.4648 51.9727C35.219 51.45 33.0957 51.4133 31.1765 51.8584C30.5232 47.9792 31.5848 43.8714 34.2798 39.5185C36.9748 35.1698 40.4661 31.8949 44.725 29.7063L38.2692 20.4167C35.0026 22.0337 31.8992 24.0835 29.0409 26.5621C26.1417 29.0407 23.5692 31.8909 21.2826 35.1126C18.9959 38.3344 17.2809 41.9726 16.1784 46.0968C15.0759 50.2209 14.7697 54.4268 15.2964 58.7551C15.9824 64.4718 17.8281 69.0451 20.8334 72.4343C23.8347 75.8684 27.5791 77.5834 32.0544 77.5834C35.9948 77.5834 39.2656 76.3992 41.8544 73.9982C44.4187 71.6462 45.6927 68.4244 45.6927 64.3288L45.7009 64.3411ZM82.9572 64.3411C82.9572 60.7478 82.0181 57.7343 80.1397 55.2883C78.8086 53.5734 76.9956 52.4627 74.7212 51.9523C72.4345 51.4459 70.3397 51.4214 68.4328 51.8624C67.7795 48.0241 68.8003 43.8999 71.5035 39.5308C74.1985 35.2024 77.6816 31.9358 81.9405 29.7308L75.5011 20.4167C72.2344 22.0337 69.1515 24.0835 66.2727 26.5621C63.3471 29.0774 60.7489 31.95 58.5389 35.1126C56.2686 38.3384 54.5781 41.9726 53.4756 46.0968C52.36 50.2185 52.059 54.5182 52.5895 58.7551C53.2673 64.4718 55.1048 69.0451 58.102 72.4343C61.0951 75.8398 64.8272 77.5466 69.3026 77.5466C73.2512 77.5466 76.5219 76.3624 79.1107 73.9655C81.671 71.6135 82.9572 68.3918 82.9572 64.2962V64.3411Z" ></path>
    </g>
  </symbol>
  <symbol  xmlns="http://www.w3.org/2000/svg" viewBox="0 0 36 36" id="cv">
    <g id="pepicons-pop:cv-circle-filled" clip-path="url(#clip0_33_1041)">
      <g id="Group">
        <g id="Mask group">
          <mask id="mask0_33_1041" maskUnits="userSpaceOnUse" x="0" y="0" width="36" height="36">
            <g id="Group_2">
              <path id="Vector" d="M0 0H36V36H0V0Z" ></path>
              <g id="Group_3">
                <path id="Vector_2" d="M14.9541 12.9462C15.7295 12.9462 16.3526 12.3231 16.3526 11.5477C16.3526 10.7723 15.7295 10.1492 14.9541 10.1492C14.1787 10.1492 13.5557 10.7723 13.5557 11.5477C13.5557 12.3231 14.1787 12.9462 14.9541 12.9462Z" ></path>
                <path id="Vector_3" fill-rule="evenodd" clip-rule="evenodd" d="M17.7645 15.9923C17.7645 14.4969 16.5045 13.4169 14.9537 13.4169C13.4029 13.4169 12.1429 14.4969 12.1429 15.9923V16.6984C12.1429 16.823 12.1983 16.9476 12.2814 17.0307C12.3645 17.1138 12.4891 17.1692 12.6137 17.1692H17.2937C17.4183 17.1692 17.5429 17.1138 17.626 17.0307C17.7091 16.9476 17.7645 16.823 17.7645 16.6984V15.9923ZM12.1152 20.0769C12.1152 19.8015 12.2246 19.5373 12.4194 19.3426C12.6141 19.1478 12.8783 19.0384 13.1537 19.0384H22.846C23.1214 19.0384 23.3856 19.1478 23.5803 19.3426C23.7751 19.5373 23.8845 19.8015 23.8845 20.0769C23.8845 20.3523 23.7751 20.6164 23.5803 20.8112C23.3856 21.0059 23.1214 21.1153 22.846 21.1153H13.1537C12.8783 21.1153 12.6141 21.0059 12.4194 20.8112C12.2246 20.6164 12.1152 20.3523 12.1152 20.0769ZM12.1152 24.2307C12.1152 23.9553 12.2246 23.6912 12.4194 23.4964C12.6141 23.3017 12.8783 23.1923 13.1537 23.1923H22.846C23.1214 23.1923 23.3856 23.3017 23.5803 23.4964C23.7751 23.6912 23.8845 23.9553 23.8845 24.2307C23.8845 24.5061 23.7751 24.7703 23.5803 24.965C23.3856 25.1598 23.1214 25.2692 22.846 25.2692H13.1537C12.8783 25.2692 12.6141 25.1598 12.4194 24.965C12.2246 24.7703 12.1152 24.5061 12.1152 24.2307Z" ></path>
                <path id="Vector_4" fill-rule="evenodd" clip-rule="evenodd" d="M7.61523 7.61536C7.61523 6.08951 8.85862 4.84613 10.3845 4.84613H19.6475C20.4257 4.84613 21.1595 5.17567 21.676 5.71982L21.6843 5.72952L27.6548 12.24C28.1518 12.7703 28.3845 13.464 28.3845 14.1231V28.3846C28.3845 29.9104 27.1411 31.1538 25.6152 31.1538H10.3845C8.85862 31.1538 7.61523 29.9104 7.61523 28.3846V7.61536ZM19.6462 7.61536H10.3845V28.3846H25.6152V14.112L19.6669 7.62505L19.6628 7.62367C19.6577 7.62001 19.6521 7.6172 19.6462 7.61536Z" ></path>
                <path id="Vector_5" fill-rule="evenodd" clip-rule="evenodd" d="M19.6473 4.84613C20.0145 4.84613 20.3667 4.99201 20.6264 5.25167C20.886 5.51134 21.0319 5.86352 21.0319 6.23075V12.7384H26.9996C27.3668 12.7384 27.719 12.8843 27.9787 13.144C28.2384 13.4036 28.3842 13.7558 28.3842 14.1231C28.3842 14.4903 28.2384 14.8425 27.9787 15.1021C27.719 15.3618 27.3668 15.5077 26.9996 15.5077H19.6473C19.2801 15.5077 18.9279 15.3618 18.6682 15.1021C18.4086 14.8425 18.2627 14.4903 18.2627 14.1231V6.23075C18.2627 5.86352 18.4086 5.51134 18.6682 5.25167C18.9279 4.99201 19.2801 4.84613 19.6473 4.84613Z" ></path>
              </g>
            </g>
          </mask>
          <g mask="url(#mask0_33_1041)">
            <path id="Vector_6" d="M18 36C27.9411 36 36 27.9411 36 18C36 8.05888 27.9411 0 18 0C8.05888 0 0 8.05888 0 18C0 27.9411 8.05888 36 18 36Z" ></path>
          </g>
        </g>
      </g>
    </g>
    <defs>
      <clipPath id="clip0_33_1041">
        <rect width="36" height="36" ></rect>
      </clipPath>
    </defs>
  </symbol>
  <symbol  xmlns="http://www.w3.org/2000/svg" viewBox="0 0 40 40" id="telegram">
    <path d="M19.9997 3.33331C10.7997 3.33331 3.33301 10.8 3.33301 20C3.33301 29.2 10.7997 36.6666 19.9997 36.6666C29.1997 36.6666 36.6663 29.2 36.6663 20C36.6663 10.8 29.1997 3.33331 19.9997 3.33331ZM27.733 14.6666C27.483 17.3 26.3997 23.7 25.8497 26.65C25.6163 27.9 25.1497 28.3166 24.7163 28.3666C23.7497 28.45 23.0163 27.7333 22.083 27.1166C20.6163 26.15 19.783 25.55 18.3663 24.6166C16.7163 23.5333 17.783 22.9333 18.733 21.9666C18.983 21.7166 23.2497 17.8333 23.333 17.4833C23.3446 17.4303 23.343 17.3753 23.3285 17.323C23.314 17.2707 23.2869 17.2228 23.2497 17.1833C23.1497 17.1 23.0163 17.1333 22.8997 17.15C22.7497 17.1833 20.4163 18.7333 15.8663 21.8C15.1997 22.25 14.5997 22.4833 14.0663 22.4666C13.4663 22.45 12.333 22.1333 11.483 21.85C10.433 21.5166 9.61634 21.3333 9.68301 20.75C9.71634 20.45 10.133 20.15 10.9163 19.8333C15.783 17.7166 19.0163 16.3166 20.633 15.65C25.2663 13.7166 26.2163 13.3833 26.8497 13.3833C26.983 13.3833 27.2997 13.4166 27.4997 13.5833C27.6663 13.7166 27.7163 13.9 27.733 14.0333C27.7163 14.1333 27.7497 14.4333 27.733 14.6666Z" ></path>
  </symbol>
  <symbol  xmlns="http://www.w3.org/2000/svg" viewBox="0 0 34 22" id="email">
    <path d="M30.6 0H3.4C1.53 0 0.017 1.2375 0.017 2.75L0 19.25C0 20.7625 1.53 22 3.4 22H30.6C32.47 22 34 20.7625 34 19.25V2.75C34 1.2375 32.47 0 30.6 0ZM30.6 5.5L17 12.375L3.4 5.5V2.75L17 9.625L30.6 2.75V5.5Z" ></path>
  </symbol>
</svg>