<svg width="801" height="1069" viewBox="0 0 801 1069" fill="none" xmlns="http://www.w3.org/2000/svg" id="background-face">
<g filter="url(#filter0_f_19_165)">
<path d="M700.138 1065.23C700.138 1428.5 120.347 1270.68 120.347 1115.59C120.347 960.5 95.5687 508.981 101.5 324C121.37 466.26 151.238 770.546 165.473 822.837C179.708 875.127 186.233 401.182 187.715 157.673C193.647 376.831 212.093 816.685 238.428 822.837C264.763 828.988 264.229 579.328 260.67 453.729C265.712 545.151 283.268 739.018 313.162 783.106C343.055 827.194 351.122 405.881 351.419 189.714C361.205 322.576 387.896 598.296 416.366 638.283C444.836 678.269 465.003 416.561 471.527 280.709C472.417 431.086 478.644 731.072 496.438 727.996C514.232 724.92 535.881 308.05 544.482 100C544.482 355.471 553.379 835.14 588.966 710.054C620.297 599.931 659.746 416.143 663.88 323.025C663.632 312.271 663.5 301.454 663.5 290.5C664.351 299.393 664.442 310.372 663.88 323.025C667.766 491.439 700.138 644.372 700.138 1065.23Z" fill="#F6C90E" fill-opacity="0.5"/>
</g>
<defs>
<filter id="filter0_f_19_165" x="0.582886" y="0" width="799.556" height="1386.82" filterUnits="userSpaceOnUse" color-interpolation-filters="sRGB">
<feFlood flood-opacity="0" result="BackgroundImageFix"/>
<feBlend mode="normal" in="SourceGraphic" in2="BackgroundImageFix" result="shape"/>
<feGaussianBlur stdDeviation="50" result="effect1_foregroundBlur_19_165"/>
</filter>
</defs>
</svg>
