<svg width="0" height="0" class="hidden">
  <symbol  xmlns="http://www.w3.org/2000/svg" viewBox="0 0 98 98" id="quote">
    <g id="gridicons:quote">
      <path id="Vector" d="M45.7009 64.3411C45.7009 60.7478 44.7617 57.7343 42.8834 55.2883C41.5522 53.606 39.7474 52.4994 37.4648 51.9727C35.219 51.45 33.0957 51.4133 31.1765 51.8584C30.5232 47.9792 31.5848 43.8714 34.2798 39.5185C36.9748 35.1698 40.4661 31.8949 44.725 29.7063L38.2692 20.4167C35.0026 22.0337 31.8992 24.0835 29.0409 26.5621C26.1417 29.0407 23.5692 31.8909 21.2826 35.1126C18.9959 38.3344 17.2809 41.9726 16.1784 46.0968C15.0759 50.2209 14.7697 54.4268 15.2964 58.7551C15.9824 64.4718 17.8281 69.0451 20.8334 72.4343C23.8347 75.8684 27.5791 77.5834 32.0544 77.5834C35.9948 77.5834 39.2656 76.3992 41.8544 73.9982C44.4187 71.6462 45.6927 68.4244 45.6927 64.3288L45.7009 64.3411ZM82.9572 64.3411C82.9572 60.7478 82.0181 57.7343 80.1397 55.2883C78.8086 53.5734 76.9956 52.4627 74.7212 51.9523C72.4345 51.4459 70.3397 51.4214 68.4328 51.8624C67.7795 48.0241 68.8003 43.8999 71.5035 39.5308C74.1985 35.2024 77.6816 31.9358 81.9405 29.7308L75.5011 20.4167C72.2344 22.0337 69.1515 24.0835 66.2727 26.5621C63.3471 29.0774 60.7489 31.95 58.5389 35.1126C56.2686 38.3384 54.5781 41.9726 53.4756 46.0968C52.36 50.2185 52.059 54.5182 52.5895 58.7551C53.2673 64.4718 55.1048 69.0451 58.102 72.4343C61.0951 75.8398 64.8272 77.5466 69.3026 77.5466C73.2512 77.5466 76.5219 76.3624 79.1107 73.9655C81.671 71.6135 82.9572 68.3918 82.9572 64.2962V64.3411Z" ></path>
    </g>
  </symbol>
   <symbol xmlns="http://www.w3.org/2000/svg" shape-rendering="geometricPrecision" text-rendering="geometricPrecision" image-rendering="optimizeQuality" fill-rule="evenodd" clip-rule="evenodd" viewBox="0 0 419 511.67" id="cv">
    <path d="M93.01 39.4h46.12C141.84 17.18 159.77 0 181.52 0c21.61 0 39.45 16.95 42.34 38.94l46.76.46c2.61 0 4.7 2.1 4.7 4.71v51.84c0 2.61-2.09 4.7-4.7 4.7H93.06c-2.57 0-4.71-2.09-4.71-4.7V44.11a4.632 4.632 0 0 1 4.66-4.71zm221.96 264.22c57.47 0 104.03 46.58 104.03 104.02 0 57.47-46.59 104.03-104.03 104.03-57.47 0-104.02-46.59-104.02-104.03 0-57.47 46.58-104.02 104.02-104.02zm-24.95 82.62a5.268 5.268 0 0 1 3.53-4.77c-.24-4.12-.75-10.33.38-14.3a17.49 17.49 0 0 1 7.8-9.92c1.33-.81 2.76-1.49 4.24-2.02 2.69-.98 1.36-5.49 4.3-5.55 6.87-.17 18.17 6.11 22.57 10.88 2.81 3.11 4.41 7.12 4.5 11.31l-.28 10.07c1.33.27 2.41 1.2 2.89 2.46 1.47 5.93-12.98 19.93-12.98 21.44.03.51.24 1 .58 1.39 10.02 13.78 37.03 7.63 37.03 35.03l-99.22.01c0-27.42 27.02-21.25 37.04-35.03.49-.72.72-1.12.71-1.44 0-1.33-13.09-14.72-13.09-19.56zM41.73 59.28h23.93v24.37H41.73c-4.77 0-9.12 1.97-12.25 5.1-3.14 3.14-5.1 7.48-5.1 12.24v315.52c0 4.75 1.96 9.1 5.1 12.24 3.15 3.15 7.51 5.12 12.25 5.12h142.61c1.69 8.44 4.17 16.6 7.37 24.38H41.73c-11.45 0-21.9-4.71-29.47-12.28C4.72 438.43 0 427.98 0 416.51V100.99c0-11.48 4.7-21.91 12.25-29.46 7.55-7.55 17.99-12.25 29.48-12.25zm297.54 217.35V100.99c0-4.77-1.96-9.11-5.09-12.26a17.36 17.36 0 0 0-12.26-5.08H298V59.28h23.92c11.44 0 21.86 4.71 29.41 12.25 7.61 7.61 12.32 18.04 12.32 29.46V283.6c-7.79-3.07-15.95-5.42-24.38-6.97zm-206.74-8.06c-7.13 0-12.92-5.79-12.92-12.92s5.79-12.93 12.92-12.93h142.82c7.13 0 12.92 5.8 12.92 12.93s-5.79 12.92-12.92 12.92H132.53zM89.5 241.21c7.98 0 14.44 6.47 14.44 14.44 0 7.98-6.46 14.44-14.44 14.44-7.97 0-14.43-6.46-14.43-14.44 0-7.97 6.46-14.44 14.43-14.44zm0 78.62c7.98 0 14.44 6.47 14.44 14.44 0 7.98-6.46 14.44-14.44 14.44-7.97 0-14.43-6.46-14.43-14.44 0-7.97 6.46-14.44 14.43-14.44zm43.04 27.36c-7.13 0-12.93-5.79-12.93-12.92s5.8-12.93 12.93-12.93h80.96a133.913 133.913 0 0 0-17.26 25.85h-63.7zM89.5 162.61c7.98 0 14.44 6.46 14.44 14.43 0 7.98-6.46 14.44-14.44 14.44-7.97 0-14.43-6.46-14.43-14.44 0-7.97 6.46-14.43 14.43-14.43zm43.03 27.35c-7.13 0-12.92-5.79-12.92-12.92 0-7.14 5.79-12.93 12.92-12.93h142.82c7.13 0 12.92 5.79 12.92 12.93 0 7.13-5.79 12.92-12.92 12.92H132.53zm48.5-169.8c12.3 0 22.26 9.96 22.26 22.27 0 12.29-9.96 22.25-22.26 22.25s-22.26-9.96-22.26-22.25c0-12.31 9.96-22.27 22.26-22.27z"></path>
  </symbol>
  <symbol  xmlns="http://www.w3.org/2000/svg" viewBox="0 0 40 40" id="telegram">
    <path d="M19.9997 3.33331C10.7997 3.33331 3.33301 10.8 3.33301 20C3.33301 29.2 10.7997 36.6666 19.9997 36.6666C29.1997 36.6666 36.6663 29.2 36.6663 20C36.6663 10.8 29.1997 3.33331 19.9997 3.33331ZM27.733 14.6666C27.483 17.3 26.3997 23.7 25.8497 26.65C25.6163 27.9 25.1497 28.3166 24.7163 28.3666C23.7497 28.45 23.0163 27.7333 22.083 27.1166C20.6163 26.15 19.783 25.55 18.3663 24.6166C16.7163 23.5333 17.783 22.9333 18.733 21.9666C18.983 21.7166 23.2497 17.8333 23.333 17.4833C23.3446 17.4303 23.343 17.3753 23.3285 17.323C23.314 17.2707 23.2869 17.2228 23.2497 17.1833C23.1497 17.1 23.0163 17.1333 22.8997 17.15C22.7497 17.1833 20.4163 18.7333 15.8663 21.8C15.1997 22.25 14.5997 22.4833 14.0663 22.4666C13.4663 22.45 12.333 22.1333 11.483 21.85C10.433 21.5166 9.61634 21.3333 9.68301 20.75C9.71634 20.45 10.133 20.15 10.9163 19.8333C15.783 17.7166 19.0163 16.3166 20.633 15.65C25.2663 13.7166 26.2163 13.3833 26.8497 13.3833C26.983 13.3833 27.2997 13.4166 27.4997 13.5833C27.6663 13.7166 27.7163 13.9 27.733 14.0333C27.7163 14.1333 27.7497 14.4333 27.733 14.6666Z" ></path>
  </symbol>
  <symbol  xmlns="http://www.w3.org/2000/svg" viewBox="0 0 34 22" id="email">
    <path d="M30.6 0H3.4C1.53 0 0.017 1.2375 0.017 2.75L0 19.25C0 20.7625 1.53 22 3.4 22H30.6C32.47 22 34 20.7625 34 19.25V2.75C34 1.2375 32.47 0 30.6 0ZM30.6 5.5L17 12.375L3.4 5.5V2.75L17 9.625L30.6 2.75V5.5Z" ></path>
  </symbol>
</svg>