<svg width="0" height="0" class="hidden">
  <symbol  xmlns="http://www.w3.org/2000/svg" viewBox="0 0 98 98" id="quote">
    <g id="gridicons:quote">
      <path id="Vector" d="M45.7009 64.3411C45.7009 60.7478 44.7617 57.7343 42.8834 55.2883C41.5522 53.606 39.7474 52.4994 37.4648 51.9727C35.219 51.45 33.0957 51.4133 31.1765 51.8584C30.5232 47.9792 31.5848 43.8714 34.2798 39.5185C36.9748 35.1698 40.4661 31.8949 44.725 29.7063L38.2692 20.4167C35.0026 22.0337 31.8992 24.0835 29.0409 26.5621C26.1417 29.0407 23.5692 31.8909 21.2826 35.1126C18.9959 38.3344 17.2809 41.9726 16.1784 46.0968C15.0759 50.2209 14.7697 54.4268 15.2964 58.7551C15.9824 64.4718 17.8281 69.0451 20.8334 72.4343C23.8347 75.8684 27.5791 77.5834 32.0544 77.5834C35.9948 77.5834 39.2656 76.3992 41.8544 73.9982C44.4187 71.6462 45.6927 68.4244 45.6927 64.3288L45.7009 64.3411ZM82.9572 64.3411C82.9572 60.7478 82.0181 57.7343 80.1397 55.2883C78.8086 53.5734 76.9956 52.4627 74.7212 51.9523C72.4345 51.4459 70.3397 51.4214 68.4328 51.8624C67.7795 48.0241 68.8003 43.8999 71.5035 39.5308C74.1985 35.2024 77.6816 31.9358 81.9405 29.7308L75.5011 20.4167C72.2344 22.0337 69.1515 24.0835 66.2727 26.5621C63.3471 29.0774 60.7489 31.95 58.5389 35.1126C56.2686 38.3384 54.5781 41.9726 53.4756 46.0968C52.36 50.2185 52.059 54.5182 52.5895 58.7551C53.2673 64.4718 55.1048 69.0451 58.102 72.4343C61.0951 75.8398 64.8272 77.5466 69.3026 77.5466C73.2512 77.5466 76.5219 76.3624 79.1107 73.9655C81.671 71.6135 82.9572 68.3918 82.9572 64.2962V64.3411Z" ></path>
    </g>
  </symbol>
</svg>